<svg xmlns="http://www.w3.org/2000/svg" version="1.1" xmlns:xlink="http://www.w3.org/1999/xlink" xmlns:svgjs="http://svgjs.dev/svgjs" width="100%" height="100%" viewBox="0 0 1000 600"><rect width="1000" height="600" x="0" y="0" fill="#161616"/><g><circle r="166.66666666666666" cx="547.0986124674479" cy="569.3210647824747" fill="#161616" transform="matrix(0.32857372548546127,0,0,0.32857372548546127,0,112.93605841828719)"/><path d="M481.1227432562641 644.3210988212866L434.3550434121203 644.3210988212866L434.3550434121203 494.32112501561517L481.1227432562641 494.32112501561517L481.1227432562641 504.66755067557955L445.8845805264752 504.66755067557955L445.8845805264752 633.9514748975105L481.1227432562641 633.9514748975105L481.1227432562641 644.3210988212866ZM526.7305299098289 621.2620245925768L513.3683299543592 621.2620245925768L513.3683299543592 535.08047453256L526.7305299098289 535.08047453256L526.7305299098289 549.1154241385653L527.380081296553 549.1154241385653Q528.7255805976247 545.937261996379 530.7206312854205 543.01428075612Q532.7388802370278 540.091299515861 535.6618614772868 537.9106627175726Q538.5848427175458 535.7532241830957 542.598142356949 534.4077248820241Q546.5882437325407 533.0622255809525 551.9470426730155 533.0622255809525L551.9470426730155 533.0622255809525Q565.4716304751662 533.0622255809525 573.6606176006537 541.6687814550485Q581.8496047261411 550.2753373291443 581.8496047261411 565.9805619295835L581.8496047261411 565.9805619295835L581.8496047261411 621.2620245925768L568.4874047706714 621.2620245925768L568.4874047706714 568.323586574553Q568.4874047706714 556.4460755030243 563.2909936768777 550.6929060777527Q558.1177808468956 544.9397366524811 548.0961308802933 544.9397366524811L548.0961308802933 544.9397366524811Q544.0828312408901 544.9397366524811 540.2551177119796 545.937261996379Q536.4042059192574 546.9347873402769 533.4116298875637 548.9298380280727Q530.3958555920584 550.94808697968 528.5631927509436 554.1262491218665Q526.7305299098289 557.2812130002412 526.7305299098289 561.4569004863255L526.7305299098289 561.4569004863255L526.7305299098289 621.2620245925768ZM613.0744678165267 494.32112501561517L659.8421676606706 494.32112501561517L659.8421676606706 644.3210988212866L613.0744678165267 644.3210988212866L613.0744678165267 633.9514748975105L648.3126305463156 633.9514748975105L648.3126305463156 504.66755067557955L613.0744678165267 504.66755067557955L613.0744678165267 494.32112501561517Z " fill="#ff8a00" transform="matrix(0.32857372548546127,0,0,0.32857372548546127,0,112.93605841828719)"/><path d="M860.448378787326 641.9636579450112L813.4911462662818 525.9000721340943L812.0931200791404 525.9000721340943L812.0931200791404 641.9636579450112L797.0986039150941 641.9636579450112L797.0986039150941 504.1895478161335L820.5909263147059 504.1895478161335L867.54815883575 620.2531336270504L868.9461850228913 620.2531336270504L868.9461850228913 504.1895478161335L883.9407011869375 504.1895478161335L883.9407011869375 641.9636579450112L860.448378787326 641.9636579450112ZM965.2455182665738 517.6215641239628L965.2455182665738 517.6215641239628Q958.3376241654043 517.6215641239628 955.5963963474801 514.7706871933215Q952.8277562513765 511.89239798450086 952.8277562513765 507.56125803218043L952.8277562513765 507.56125803218043L952.8277562513765 504.4088460415674Q952.8277562513765 500.05029381106766 955.5963963474801 497.1994168804264Q958.3376241654043 494.3211276716058 965.2455182665738 494.3211276716058L965.2455182665738 494.3211276716058Q972.1534123677432 494.3211276716058 974.9220524638467 497.1994168804264Q977.6906925599503 500.05029381106766 977.6906925599503 504.4088460415674L977.6906925599503 504.4088460415674L977.6906925599503 507.56125803218043Q977.6906925599503 511.89239798450086 974.9220524638467 514.7706871933215Q972.1534123677432 517.6215641239628 965.2455182665738 517.6215641239628ZM920.6457416689445 641.9636579450112L920.6457416689445 628.5316416371818L957.3507821509517 628.5316416371818L957.3507821509517 553.5316485387718L920.6457416689445 553.5316485387718L920.6457416689445 540.1270445091217L973.140254382196 540.1270445091217L973.140254382196 628.5316416371818L1007.487838940788 628.5316416371818L1007.487838940788 641.9636579450112L920.6457416689445 641.9636579450112ZM1080.9253321829813 644.3211138684262L1080.9253321829813 644.3211138684262Q1069.850771798567 644.3211138684262 1061.2707287284638 640.4833949233321Q1052.6906856583605 636.6456759782379 1046.769633571644 629.7377818770685Q1040.8485814849273 622.8298877758991 1037.778406328852 612.9614676313715Q1034.735643450956 603.093047486844 1034.735643450956 591.0316450879768L1034.735643450956 591.0316450879768Q1034.735643450956 578.997654967289 1037.8880554415691 569.1292348227612Q1041.0404674321821 559.2608146782336 1046.9615195188985 552.2706837425266Q1052.882571605615 545.2531405286402 1061.3803778411807 541.4976584180838Q1069.850771798567 537.7421763075274 1080.7060339575473 537.7421763075274L1080.7060339575473 537.7421763075274Q1095.5086641743387 537.7421763075274 1104.8014264771023 544.2662985141874Q1114.0667765016867 550.7904207208474 1118.4253287321865 561.2344987071392L1118.4253287321865 561.2344987071392L1105.788268491555 567.9505068610538Q1103.0196283954515 560.0557707454317 1096.6051553015086 555.7246307931113Q1090.1906822075657 551.3660785626115 1080.7060339575473 551.3660785626115L1080.7060339575473 551.3660785626115Q1073.798139856378 551.3660785626115 1068.3705087768878 553.6412976514887Q1062.9428776973975 555.916516740366 1059.2148078650205 560.0557707454317Q1055.459325754464 564.1950247504974 1053.5678785600962 569.9241908899594Q1051.7038436439077 575.6533570294212 1051.7038436439077 582.369365183336L1051.7038436439077 582.369365183336L1051.7038436439077 599.721337270797Q1051.7038436439077 606.4373454247116 1053.5678785600962 612.1665115641736Q1055.459325754464 617.8956777036353 1059.2148078650205 622.0349317087012Q1062.9428776973975 626.174185713767 1068.4801578896047 628.4494048026443Q1074.017438081812 630.7246238915213 1081.1172181302359 630.7246238915213L1081.1172181302359 630.7246238915213Q1091.3694101692731 630.7246238915213 1098.0854183231877 625.9822997665121Q1104.8014264771023 621.2399756415032 1108.7487945349135 612.9614676313715L1108.7487945349135 612.9614676313715L1119.9878285884033 620.6369055215598Q1115.464802688828 630.9165098387762 1105.8705053260928 637.6325179926907Q1096.303620241537 644.3211138684262 1080.9253321829813 644.3211138684262ZM1195.7827777540115 644.3211138684262L1195.7827777540115 644.3211138684262Q1185.1194015422857 644.3211138684262 1176.5393584721826 640.5930440360489Q1167.9593154020795 636.8375619254928 1161.9286142026458 629.8200187116063Q1155.9253252813915 622.8298877758991 1152.7455010125993 613.0437044659093Q1149.593089021986 603.2849334340985 1149.593089021986 591.0316450879768L1149.593089021986 591.0316450879768Q1149.593089021986 578.997654967289 1152.7455010125993 569.1292348227612Q1155.9253252813915 559.2608146782336 1161.9286142026458 552.2706837425266Q1167.9593154020795 545.2531405286402 1176.5393584721826 541.4976584180838Q1185.1194015422857 537.7421763075274 1195.7827777540115 537.7421763075274L1195.7827777540115 537.7421763075274Q1206.4461539657373 537.7421763075274 1215.0261970358406 541.4976584180838Q1223.6062401059437 545.2531405286402 1229.6369413053771 552.2706837425266Q1235.6402302266315 559.2608146782336 1238.8200544954238 569.1292348227612Q1241.9724664860369 578.997654967289 1241.9724664860369 591.0316450879768L1241.9724664860369 591.0316450879768Q1241.9724664860369 603.2849334340985 1238.8200544954238 613.0437044659093Q1235.6402302266315 622.8298877758991 1229.6369413053771 629.8200187116063Q1223.6062401059437 636.8375619254928 1215.0261970358406 640.5930440360489Q1206.4461539657373 644.3211138684262 1195.7827777540115 644.3211138684262ZM1195.7827777540115 630.7246238915213L1195.7827777540115 630.7246238915213Q1208.995495836407 630.7246238915213 1217.1095301774628 622.8298877758991Q1225.1961522403399 614.9351516602771 1225.1961522403399 598.3507233618348L1225.1961522403399 598.3507233618348L1225.1961522403399 583.739979092298Q1225.1961522403399 567.1555507938558 1217.1095301774628 559.2608146782336Q1208.995495836407 551.3660785626115 1195.7827777540115 551.3660785626115L1195.7827777540115 551.3660785626115Q1182.570059671616 551.3660785626115 1174.45602533056 559.2608146782336Q1166.3694032676833 567.1555507938558 1166.3694032676833 583.739979092298L1166.3694032676833 583.739979092298L1166.3694032676833 598.3507233618348Q1166.3694032676833 614.9351516602771 1174.45602533056 622.8298877758991Q1182.570059671616 630.7246238915213 1195.7827777540115 630.7246238915213ZM1270.7827708524217 641.9636579450112L1270.7827708524217 628.5316416371818L1306.3090833727213 628.5316416371818L1306.3090833727213 509.3430561138312L1270.7827708524217 509.3430561138312L1270.7827708524217 495.91103980600195L1322.0985556039655 495.91103980600195L1322.0985556039655 628.5316416371818L1357.624868124265 628.5316416371818L1357.624868124265 641.9636579450112L1270.7827708524217 641.9636579450112ZM1481.9669619453136 641.9636579450112L1471.111699786333 641.9636579450112Q1461.8463497617488 641.9636579450112 1457.8989817039378 637.2213338200022Q1453.9516136461268 632.479009694993 1452.964771631674 625.379229646569L1452.964771631674 625.379229646569L1451.9779296172212 625.379229646569Q1448.6062194011743 634.2608077766438 1441.2049042927786 639.3046669616247Q1433.8035891843826 644.3211138684262 1421.3858271691854 644.3211138684262L1421.3858271691854 644.3211138684262Q1405.3770567125073 644.3211138684262 1395.9198207406682 636.0426058582946Q1386.43517249065 627.7640978481631 1386.43517249065 613.345239525881L1386.43517249065 613.345239525881Q1386.43517249065 599.145679429033 1396.7970136424042 591.4428292606653Q1407.158854794158 583.739979092298 1430.2674052992604 583.739979092298L1430.2674052992604 583.739979092298L1451.9779296172212 583.739979092298L1451.9779296172212 573.6796730005158Q1451.9779296172212 562.4132266688466 1445.6456933578158 556.7937096421017Q1439.3408693765898 551.1741926153568 1427.6906511504114 551.1741926153568L1427.6906511504114 551.1741926153568Q1417.4384591113742 551.1741926153568 1410.9143369047144 555.2312097858849Q1404.3902146980545 559.2608146782336 1400.4428466402435 566.168708779403L1400.4428466402435 566.168708779403L1389.8068827066968 558.2739726637808Q1391.7805667356024 554.3266046059698 1395.1248646734703 550.5711224954134Q1398.4691626113379 546.8430526630364 1403.4033726836017 543.9647634542157Q1408.3375827558655 541.1138865235745 1414.6698190152708 539.4417375546407Q1420.9746429964969 537.7421763075274 1428.6774931648642 537.7421763075274L1428.6774931648642 537.7421763075274Q1446.6325353722689 537.7421763075274 1457.1862624712774 546.8430526630364Q1467.7674018484654 555.916516740366 1467.7674018484654 572.0897608661196L1467.7674018484654 572.0897608661196L1467.7674018484654 628.1478697426726L1481.9669619453136 628.1478697426726L1481.9669619453136 641.9636579450112ZM1424.12705498711 631.1083957860308L1424.12705498711 631.1083957860308Q1430.2674052992604 631.1083957860308 1435.2838522060617 629.6281327643517Q1440.3277113910428 628.1478697426726 1444.0831935015992 625.6807647065405Q1447.8112633339763 623.2136596704086 1449.8945964755987 619.7597126198241Q1451.9779296172212 616.3057655692394 1451.9779296172212 612.3583975114282L1451.9779296172212 612.3583975114282L1451.9779296172212 595.5820832657312L1430.2674052992604 595.5820832657312Q1416.040432924233 595.5820832657312 1409.5437229957522 599.5294513235422Q1403.0196007890922 603.4768193813534 1403.0196007890922 610.9877836024662L1403.0196007890922 610.9877836024662L1403.0196007890922 615.1270376075317Q1403.0196007890922 623.021773723154 1408.6391178158372 627.0513786155027Q1414.2586348425823 631.1083957860308 1424.12705498711 631.1083957860308ZM1552.2246309187146 644.3211138684262L1552.2246309187146 644.3211138684262Q1536.2432727402156 644.3211138684262 1524.7027036267543 638.8934827889359Q1513.1621345132928 633.4658517094458 1505.0481001722367 624.3923876321162L1505.0481001722367 624.3923876321162L1515.7114763839625 615.1270376075317Q1523.0305546578204 622.8298877758991 1531.6928345624613 626.969141780965Q1540.3825267452814 631.1083957860308 1552.6358150914032 631.1083957860308L1552.6358150914032 631.1083957860308Q1564.4779192648364 631.1083957860308 1572.0711203204871 626.8594926682481Q1579.6643213761374 622.6105895504652 1579.6643213761374 613.5371254731358L1579.6643213761374 613.5371254731358Q1579.6643213761374 609.5897574153246 1578.1840583544583 606.9307664319381Q1576.7037953327792 604.2717754485514 1574.1270411839303 602.6818633141552Q1571.5776993132606 601.1193634579383 1568.4252873226476 600.2147582780233Q1565.2454630538552 599.3375653762876 1561.7092791687328 598.7344952563442L1561.7092791687328 598.7344952563442L1545.7279209902338 596.3770393329294Q1540.3825267452814 595.5820832657312 1534.1599395985932 594.2114693567692Q1527.9647647300842 592.8134431696276 1522.8112564323862 589.7706802917317Q1517.6851604128678 586.7005051356564 1514.2312133622831 581.5744091161378Q1510.7772663116987 576.4483130966194 1510.7772663116987 568.1423928083084L1510.7772663116987 568.1423928083084Q1510.7772663116987 560.4395426399411 1513.8474414677737 554.8200256131962Q1516.8902043456699 549.2005085864513 1522.427484537877 545.3627896413572Q1527.9647647300842 541.4976584180838 1535.4483166730176 539.6336235018953Q1542.9592808941304 537.7421763075274 1551.840859024205 537.7421763075274L1551.840859024205 537.7421763075274Q1565.6566472265438 537.7421763075274 1575.826602431043 542.1007285380272Q1585.9691453573635 546.4318684903477 1593.2882236312214 554.1347186587151L1593.2882236312214 554.1347186587151L1583.008619314005 563.8112528559881Q1581.2542335105334 561.6456828798277 1578.5678302489675 559.3704637909507Q1575.908839265581 557.0952447020734 1572.0711203204871 555.2312097858849Q1568.2059890972137 553.339762591517 1563.079893077695 552.1610346298096Q1557.9537970581766 550.9823066681022 1551.237788904262 550.9823066681022L1551.237788904262 550.9823066681022Q1539.203798783574 550.9823066681022 1532.7893256896311 555.1215606731679Q1526.374852595688 559.2608146782336 1526.374852595688 567.1555507938558L1526.374852595688 567.1555507938558Q1526.374852595688 571.1029188516668 1527.8551156173671 573.7619098350533Q1529.3353786390464 576.4483130966194 1531.9121327878952 578.0108129528362Q1534.4614746585648 579.6007250872324 1537.723535761895 580.4779179889681Q1540.9855968652248 581.3825231688832 1544.3298948030927 581.9581810106472L1544.3298948030927 581.9581810106472L1560.3112529815915 584.3430492122413Q1565.8485331737986 585.1105930012602 1571.9614712077698 586.5086191884016Q1578.0744092417415 587.8792330973638 1583.227917539439 590.9494082534391Q1588.3540135589576 593.992171131335 1591.8079606095423 599.145679429033Q1595.261907660127 604.2717754485514 1595.261907660127 612.550283458683L1595.261907660127 612.550283458683Q1595.261907660127 627.7640978481631 1583.5020403212313 636.0426058582946Q1571.7695852605152 644.3211138684262 1552.2246309187146 644.3211138684262ZM1792.4384246034253 644.3211138684262L1792.4384246034253 644.3211138684262Q1767.164304122163 644.3211138684262 1754.8287789415033 625.9822997665121Q1742.4932537608436 607.6160733864192 1742.4932537608436 573.0766028805724L1742.4932537608436 573.0766028805724Q1742.4932537608436 538.5371323747256 1754.8287789415033 520.1983182728117Q1767.164304122163 501.83209189271855 1792.4384246034253 501.83209189271855L1792.4384246034253 501.83209189271855Q1801.8956605752644 501.83209189271855 1808.8035546764336 504.4088460415674Q1815.7114487776032 506.95818791223707 1820.6456588498665 511.3167401427368Q1825.5798689221308 515.6478800950572 1828.9515791381775 521.0755111745475Q1832.2958770760454 526.5031422540377 1834.8726312248943 532.0404224462449L1834.8726312248943 532.0404224462449L1820.6456588498665 538.5371323747256Q1818.8638607682162 534.0141064751504 1816.506404844801 529.9570893046223Q1814.1489489213861 525.9000721340943 1810.8868878180563 522.8573092561983Q1807.6248267147262 519.787134100123 1803.1840376496887 518.0053360184722Q1798.7432485846514 516.2509502150006 1792.4384246034253 516.2509502150006L1792.4384246034253 516.2509502150006Q1776.0458822522378 516.2509502150006 1768.0414970238987 528.6687122301979Q1760.0645240737388 541.1138865235745 1760.0645240737388 561.8375688270826L1760.0645240737388 561.8375688270826L1760.0645240737388 584.3430492122413Q1760.0645240737388 605.0667315157496 1768.0414970238987 617.4844935309468Q1776.0458822522378 629.9296678243234 1792.4384246034253 629.9296678243234L1792.4384246034253 629.9296678243234Q1798.7432485846514 629.9296678243234 1803.1840376496887 628.1478697426726Q1807.6248267147262 626.3660716610216 1810.8868878180563 623.3233087831256Q1814.1489489213861 620.2531336270504 1816.506404844801 616.1961164565223Q1818.8638607682162 612.1665115641736 1820.6456588498665 607.6160733864192L1820.6456588498665 607.6160733864192L1834.8726312248943 614.1401955930792Q1832.2958770760454 619.8693617325409 1828.9515791381775 625.1873436993142Q1825.5798689221308 630.5053256660874 1820.6456588498665 634.8638778965872Q1815.7114487776032 639.1950178489076 1808.8035546764336 641.7717719977566Q1801.8956605752644 644.3211138684262 1792.4384246034253 644.3211138684262ZM1955.6511288826412 641.9636579450112L1944.7958667236605 641.9636579450112Q1935.5305166990763 641.9636579450112 1931.583148641265 637.2213338200022Q1927.6357805834543 632.479009694993 1926.6489385690013 625.379229646569L1926.6489385690013 625.379229646569L1925.6620965545487 625.379229646569Q1922.290386338502 634.2608077766438 1914.889071230106 639.3046669616247Q1907.4877561217102 644.3211138684262 1895.069994106513 644.3211138684262L1895.069994106513 644.3211138684262Q1879.0612236498348 644.3211138684262 1869.6039876779957 636.0426058582946Q1860.1193394279778 627.7640978481631 1860.1193394279778 613.345239525881L1860.1193394279778 613.345239525881Q1860.1193394279778 599.145679429033 1870.4811805797315 591.4428292606653Q1880.8430217314856 583.739979092298 1903.951572236588 583.739979092298L1903.951572236588 583.739979092298L1925.6620965545487 583.739979092298L1925.6620965545487 573.6796730005158Q1925.6620965545487 562.4132266688466 1919.3298602951434 556.7937096421017Q1913.0250363139173 551.1741926153568 1901.374818087739 551.1741926153568L1901.374818087739 551.1741926153568Q1891.1226260487022 551.1741926153568 1884.598503842042 555.2312097858849Q1878.0743816353822 559.2608146782336 1874.127013577571 566.168708779403L1874.127013577571 566.168708779403L1863.4910496440245 558.2739726637808Q1865.4647336729302 554.3266046059698 1868.8090316107975 550.5711224954134Q1872.1533295486654 546.8430526630364 1877.0875396209292 543.9647634542157Q1882.021749693193 541.1138865235745 1888.3539859525984 539.4417375546407Q1894.6588099338244 537.7421763075274 1902.3616601021915 537.7421763075274L1902.3616601021915 537.7421763075274Q1920.3167023095964 537.7421763075274 1930.8704294086049 546.8430526630364Q1941.4515687857931 555.916516740366 1941.4515687857931 572.0897608661196L1941.4515687857931 572.0897608661196L1941.4515687857931 628.1478697426726L1955.6511288826412 628.1478697426726L1955.6511288826412 641.9636579450112ZM1897.8112219244374 631.1083957860308L1897.8112219244374 631.1083957860308Q1903.951572236588 631.1083957860308 1908.9680191433893 629.6281327643517Q1914.01187832837 628.1478697426726 1917.7673604389267 625.6807647065405Q1921.4954302713038 623.2136596704086 1923.5787634129263 619.7597126198241Q1925.6620965545487 616.3057655692394 1925.6620965545487 612.3583975114282L1925.6620965545487 612.3583975114282L1925.6620965545487 595.5820832657312L1903.951572236588 595.5820832657312Q1889.7245998615606 595.5820832657312 1883.2278899330797 599.5294513235422Q1876.70376772642 603.4768193813534 1876.70376772642 610.9877836024662L1876.70376772642 610.9877836024662L1876.70376772642 615.1270376075317Q1876.70376772642 623.021773723154 1882.3232847531647 627.0513786155027Q1887.9428017799098 631.1083957860308 1897.8112219244374 631.1083957860308ZM1980.7059511384698 641.9636579450112L1980.7059511384698 628.5316416371818L2010.5305097974867 628.5316416371818L2010.5305097974867 553.5316485387718L1980.7059511384698 553.5316485387718L1980.7059511384698 540.1270445091217L2026.3199820287307 540.1270445091217L2026.3199820287307 565.7849368848936L2027.3068240431837 565.7849368848936Q2030.4592360337967 553.7509467642058 2039.2311650511544 546.9252894975741Q2048.030506346692 540.1270445091217 2061.6269963235964 540.1270445091217L2061.6269963235964 540.1270445091217L2075.8539686986232 540.1270445091217L2075.8539686986232 555.916516740366L2056.692786251332 555.916516740366Q2043.0962962744277 555.916516740366 2034.7081391515792 563.8112528559881Q2026.3199820287307 571.7059889716102 2026.3199820287307 584.5349351594962L2026.3199820287307 584.5349351594962L2026.3199820287307 628.5316416371818L2065.7936626068413 628.5316416371818L2065.7936626068413 641.9636579450112L1980.7059511384698 641.9636579450112ZM2099.1269928728016 641.9636579450112L2099.1269928728016 628.5316416371818L2128.951551531819 628.5316416371818L2128.951551531819 553.5316485387718L2099.1269928728016 553.5316485387718L2099.1269928728016 540.1270445091217L2144.741023763063 540.1270445091217L2144.741023763063 565.7849368848936L2145.727865777516 565.7849368848936Q2148.8802777681285 553.7509467642058 2157.6522067854867 546.9252894975741Q2166.4515480810232 540.1270445091217 2180.0480380579284 540.1270445091217L2180.0480380579284 540.1270445091217L2194.275010432956 540.1270445091217L2194.275010432956 555.916516740366L2175.113827985664 555.916516740366Q2161.51733800876 555.916516740366 2153.1291808859114 563.8112528559881Q2144.741023763063 571.7059889716102 2144.741023763063 584.5349351594962L2144.741023763063 584.5349351594962L2144.741023763063 628.5316416371818L2184.2147043411733 628.5316416371818L2184.2147043411733 641.9636579450112L2099.1269928728016 641.9636579450112ZM2310.9142540856365 641.9636579450112L2300.058991926656 641.9636579450112Q2290.7936419020716 641.9636579450112 2286.8462738442613 637.2213338200022Q2282.89890578645 632.479009694993 2281.912063771997 625.379229646569L2281.912063771997 625.379229646569L2280.925221757544 625.379229646569Q2277.5535115414978 634.2608077766438 2270.1521964331014 639.3046669616247Q2262.750881324706 644.3211138684262 2250.333119309508 644.3211138684262L2250.333119309508 644.3211138684262Q2234.3243488528306 644.3211138684262 2224.867112880992 636.0426058582946Q2215.382464630973 627.7640978481631 2215.382464630973 613.345239525881L2215.382464630973 613.345239525881Q2215.382464630973 599.145679429033 2225.7443057827268 591.4428292606653Q2236.1061469344813 583.739979092298 2259.2146974395837 583.739979092298L2259.2146974395837 583.739979092298L2280.925221757544 583.739979092298L2280.925221757544 573.6796730005158Q2280.925221757544 562.4132266688466 2274.5929854981396 556.7937096421017Q2268.2881615169135 551.1741926153568 2256.6379432907343 551.1741926153568L2256.6379432907343 551.1741926153568Q2246.385751251698 551.1741926153568 2239.8616290450373 555.2312097858849Q2233.3375068383775 559.2608146782336 2229.3901387805663 566.168708779403L2229.3901387805663 566.168708779403L2218.7541748470203 558.2739726637808Q2220.7278588759254 554.3266046059698 2224.0721568137933 550.5711224954134Q2227.416454751661 546.8430526630364 2232.3506648239254 543.9647634542157Q2237.2848748961887 541.1138865235745 2243.617111155594 539.4417375546407Q2249.92193513682 537.7421763075274 2257.6247853051873 537.7421763075274L2257.6247853051873 537.7421763075274Q2275.5798275125917 537.7421763075274 2286.1335546116006 546.8430526630364Q2296.714693988789 555.916516740366 2296.714693988789 572.0897608661196L2296.714693988789 572.0897608661196L2296.714693988789 628.1478697426726L2310.9142540856365 628.1478697426726L2310.9142540856365 641.9636579450112ZM2253.0743471274327 631.1083957860308L2253.0743471274327 631.1083957860308Q2259.2146974395837 631.1083957860308 2264.231144346385 629.6281327643517Q2269.2750035313657 628.1478697426726 2273.0304856419225 625.6807647065405Q2276.758555474299 623.2136596704086 2278.8418886159216 619.7597126198241Q2280.925221757544 616.3057655692394 2280.925221757544 612.3583975114282L2280.925221757544 612.3583975114282L2280.925221757544 595.5820832657312L2259.2146974395837 595.5820832657312Q2244.987725064556 595.5820832657312 2238.4910151360755 599.5294513235422Q2231.9668929294157 603.4768193813534 2231.9668929294157 610.9877836024662L2231.9668929294157 610.9877836024662L2231.9668929294157 615.1270376075317Q2231.9668929294157 623.021773723154 2237.5864099561604 627.0513786155027Q2243.205926982905 631.1083957860308 2253.0743471274327 631.1083957860308ZM2381.171923059038 644.3211138684262L2381.171923059038 644.3211138684262Q2365.1905648805387 644.3211138684262 2353.6499957670776 638.8934827889359Q2342.1094266536156 633.4658517094458 2333.9953923125595 624.3923876321162L2333.9953923125595 624.3923876321162L2344.658768524285 615.1270376075317Q2351.977846798143 622.8298877758991 2360.640126702784 626.969141780965Q2369.3298188856043 631.1083957860308 2381.583107231726 631.1083957860308L2381.583107231726 631.1083957860308Q2393.4252114051596 631.1083957860308 2401.0184124608104 626.8594926682481Q2408.6116135164602 622.6105895504652 2408.6116135164602 613.5371254731358L2408.6116135164602 613.5371254731358Q2408.6116135164602 609.5897574153246 2407.131350494781 606.9307664319381Q2405.651087473102 604.2717754485514 2403.0743333242535 602.6818633141552Q2400.5249914535834 601.1193634579383 2397.372579462971 600.2147582780233Q2394.192755194178 599.3375653762876 2390.656571309056 598.7344952563442L2390.656571309056 598.7344952563442L2374.6752131305575 596.3770393329294Q2369.3298188856043 595.5820832657312 2363.107231738916 594.2114693567692Q2356.9120568704075 592.8134431696276 2351.7585485727095 589.7706802917317Q2346.632452553191 586.7005051356564 2343.1785055026066 581.5744091161378Q2339.7245584520215 576.4483130966194 2339.7245584520215 568.1423928083084L2339.7245584520215 568.1423928083084Q2339.7245584520215 560.4395426399411 2342.794733608097 554.8200256131962Q2345.837496485993 549.2005085864513 2351.3747766782 545.3627896413572Q2356.9120568704075 541.4976584180838 2364.395608813341 539.6336235018953Q2371.9065730344537 537.7421763075274 2380.7881511645282 537.7421763075274L2380.7881511645282 537.7421763075274Q2394.603939366867 537.7421763075274 2404.7738945713663 542.1007285380272Q2414.9164374976863 546.4318684903477 2422.2355157715447 554.1347186587151L2422.2355157715447 554.1347186587151L2411.955911454328 563.8112528559881Q2410.2015256508566 561.6456828798277 2407.515122389291 559.3704637909507Q2404.8561314059043 557.0952447020734 2401.0184124608104 555.2312097858849Q2397.1532812375362 553.339762591517 2392.0271852180185 552.1610346298096Q2386.9010891985 550.9823066681022 2380.185081044585 550.9823066681022L2380.185081044585 550.9823066681022Q2368.151090923897 550.9823066681022 2361.7366178299544 555.1215606731679Q2355.322144736011 559.2608146782336 2355.322144736011 567.1555507938558L2355.322144736011 567.1555507938558Q2355.322144736011 571.1029188516668 2356.80240775769 573.7619098350533Q2358.2826707793693 576.4483130966194 2360.8594249282187 578.0108129528362Q2363.408766798888 579.6007250872324 2366.6708279022178 580.4779179889681Q2369.9328890055476 581.3825231688832 2373.2771869434155 581.9581810106472L2373.2771869434155 581.9581810106472L2389.2585451219147 584.3430492122413Q2394.7958253141214 585.1105930012602 2400.908763348093 586.5086191884016Q2407.0217013820647 587.8792330973638 2412.1752096797627 590.9494082534391Q2417.3013056992804 593.992171131335 2420.7552527498656 599.145679429033Q2424.2091998004507 604.2717754485514 2424.2091998004507 612.550283458683L2424.2091998004507 612.550283458683Q2424.2091998004507 627.7640978481631 2412.449332461554 636.0426058582946Q2400.7168774008387 644.3211138684262 2381.171923059038 644.3211138684262ZM2501.977832994964 644.3211138684262L2501.977832994964 644.3211138684262Q2490.903272610549 644.3211138684262 2482.323229540446 640.4833949233321Q2473.743186470343 636.6456759782379 2467.8221343836267 629.7377818770685Q2461.9010822969094 622.8298877758991 2458.830907140835 612.9614676313715Q2455.7881442629387 603.093047486844 2455.7881442629387 591.0316450879768L2455.7881442629387 591.0316450879768Q2455.7881442629387 578.997654967289 2458.940556253551 569.1292348227612Q2462.0929682441647 559.2608146782336 2468.014020330881 552.2706837425266Q2473.9350724175974 545.2531405286402 2482.4328786531632 541.4976584180838Q2490.903272610549 537.7421763075274 2501.7585347695303 537.7421763075274L2501.7585347695303 537.7421763075274Q2516.5611649863213 537.7421763075274 2525.853927289085 544.2662985141874Q2535.119277313669 550.7904207208474 2539.4778295441693 561.2344987071392L2539.4778295441693 561.2344987071392L2526.840769303538 567.9505068610538Q2524.072129207434 560.0557707454317 2517.6576561134907 555.7246307931113Q2511.2431830195483 551.3660785626115 2501.7585347695303 551.3660785626115L2501.7585347695303 551.3660785626115Q2494.85064066836 551.3660785626115 2489.4230095888706 553.6412976514887Q2483.9953785093803 555.916516740366 2480.267308677003 560.0557707454317Q2476.511826566447 564.1950247504974 2474.620379372079 569.9241908899594Q2472.75634445589 575.6533570294212 2472.75634445589 582.369365183336L2472.75634445589 582.369365183336L2472.75634445589 599.721337270797Q2472.75634445589 606.4373454247116 2474.620379372079 612.1665115641736Q2476.511826566447 617.8956777036353 2480.267308677003 622.0349317087012Q2483.9953785093803 626.174185713767 2489.532658701587 628.4494048026443Q2495.0699388937946 630.7246238915213 2502.1697189422184 630.7246238915213L2502.1697189422184 630.7246238915213Q2512.4219109812557 630.7246238915213 2519.1379191351707 625.9822997665121Q2525.853927289085 621.2399756415032 2529.801295346896 612.9614676313715L2529.801295346896 612.9614676313715L2541.0403294003854 620.6369055215598Q2536.51730350081 630.9165098387762 2526.923006138075 637.6325179926907Q2517.356121053519 644.3211138684262 2501.977832994964 644.3211138684262ZM2616.8352785659936 644.3211138684262L2616.8352785659936 644.3211138684262Q2606.1719023542682 644.3211138684262 2597.5918592841654 640.5930440360489Q2589.0118162140625 636.8375619254928 2582.981115014628 629.8200187116063Q2576.9778260933736 622.8298877758991 2573.7980018245817 613.0437044659093Q2570.645589833968 603.2849334340985 2570.645589833968 591.0316450879768L2570.645589833968 591.0316450879768Q2570.645589833968 578.997654967289 2573.7980018245817 569.1292348227612Q2576.9778260933736 559.2608146782336 2582.981115014628 552.2706837425266Q2589.0118162140625 545.2531405286402 2597.5918592841654 541.4976584180838Q2606.1719023542682 537.7421763075274 2616.8352785659936 537.7421763075274L2616.8352785659936 537.7421763075274Q2627.49865477772 537.7421763075274 2636.0786978478227 541.4976584180838Q2644.6587409179265 545.2531405286402 2650.68944211736 552.2706837425266Q2656.6927310386145 559.2608146782336 2659.8725553074064 569.1292348227612Q2663.024967298019 578.997654967289 2663.024967298019 591.0316450879768L2663.024967298019 591.0316450879768Q2663.024967298019 603.2849334340985 2659.8725553074064 613.0437044659093Q2656.6927310386145 622.8298877758991 2650.68944211736 629.8200187116063Q2644.6587409179265 636.8375619254928 2636.0786978478227 640.5930440360489Q2627.49865477772 644.3211138684262 2616.8352785659936 644.3211138684262ZM2616.8352785659936 630.7246238915213L2616.8352785659936 630.7246238915213Q2630.047996648389 630.7246238915213 2638.162030989445 622.8298877758991Q2646.248653052323 614.9351516602771 2646.248653052323 598.3507233618348L2646.248653052323 598.3507233618348L2646.248653052323 583.739979092298Q2646.248653052323 567.1555507938558 2638.162030989445 559.2608146782336Q2630.047996648389 551.3660785626115 2616.8352785659936 551.3660785626115L2616.8352785659936 551.3660785626115Q2603.622560483599 551.3660785626115 2595.508526142543 559.2608146782336Q2587.421904079666 567.1555507938558 2587.421904079666 583.739979092298L2587.421904079666 583.739979092298L2587.421904079666 598.3507233618348Q2587.421904079666 614.9351516602771 2595.508526142543 622.8298877758991Q2603.622560483599 630.7246238915213 2616.8352785659936 630.7246238915213Z " fill="#ff8a00" transform="matrix(0.32857372548546127,0,0,0.32857372548546127,0,112.93605841828719)"/></g></svg>